# Blender v2.92.0 OBJ File: ''
# www.blender.org
mtllib torpedo.mtl
o Cylinder
v -0.000000 0.151106 -0.951106
v -0.000000 0.151106 0.951106
v 0.106848 0.106848 -0.951106
v 0.106848 0.106848 0.951106
v 0.151106 -0.000000 -0.951106
v 0.151106 -0.000000 0.951106
v 0.106848 -0.106848 -0.951106
v 0.106848 -0.106848 0.951106
v -0.000000 -0.151107 -0.951106
v -0.000000 -0.151106 0.951106
v -0.106848 -0.106848 -0.951106
v -0.106848 -0.106848 0.951106
v -0.151107 -0.000000 -0.951106
v -0.151107 -0.000000 0.951106
v -0.106848 0.106848 -0.951106
v -0.106848 0.106848 0.951106
v -0.000000 0.109672 1.151106
v 0.077550 0.077550 1.151106
v 0.109672 0.000000 1.151106
v 0.077550 -0.077550 1.151106
v -0.000000 -0.109672 1.151106
v -0.077550 -0.077550 1.151106
v -0.109672 0.000000 1.151106
v -0.077550 0.077550 1.151106
v -0.000000 0.000000 1.189305
v -0.061625 0.000000 -1.223953
v -0.043575 -0.043575 -1.223953
v -0.000000 -0.061625 -1.223953
v 0.043575 -0.043575 -1.223953
v 0.061625 0.000000 -1.223953
v 0.043575 0.043575 -1.223953
v -0.000000 0.061625 -1.223953
v -0.043575 0.043575 -1.223953
v -0.061625 -0.000000 -1.420402
v -0.043575 -0.043575 -1.420402
v -0.000000 -0.061625 -1.420402
v 0.043575 -0.043575 -1.420402
v 0.061625 -0.000000 -1.420402
v 0.043575 0.043575 -1.420402
v -0.000000 0.061625 -1.420402
v -0.043575 0.043575 -1.420402
v -0.011498 -0.313197 -0.760239
v -0.011498 0.313197 -0.760239
v -0.011498 -0.313197 -1.053644
v -0.011498 0.313197 -1.053644
v 0.011498 -0.313197 -0.760239
v 0.011498 0.313197 -0.760239
v 0.011498 -0.313197 -1.053644
v 0.011498 0.313197 -1.053644
v 0.030845 -0.152390 -1.256012
v -0.040535 0.152390 -1.261607
v -0.040535 -0.152390 -1.379646
v 0.030845 0.152390 -1.385240
v 0.040535 -0.152390 -1.261607
v -0.030845 0.152390 -1.256012
v -0.030845 -0.152390 -1.385240
v 0.040535 0.152390 -1.379646
v -0.004845 0.000000 -1.258809
v -0.004845 0.000000 -1.382443
v 0.004845 0.000000 -1.382443
v 0.004845 0.000000 -1.258809
v 0.152390 0.030845 -1.256012
v -0.152390 -0.040535 -1.261607
v 0.152390 -0.040535 -1.379646
v -0.152390 0.030845 -1.385240
v 0.152390 0.040535 -1.261607
v -0.152390 -0.030845 -1.256012
v 0.152390 -0.030845 -1.385240
v -0.152390 0.040535 -1.379646
v -0.000000 -0.004845 -1.258809
v 0.000000 -0.004845 -1.382443
v 0.000000 0.004845 -1.382443
v -0.000000 0.004845 -1.258809
vt 1.000000 0.500000
vt 1.000000 1.000000
vt 0.875000 1.000000
vt 0.875000 0.500000
vt 0.750000 1.000000
vt 0.750000 0.500000
vt 0.625000 1.000000
vt 0.625000 0.500000
vt 0.500000 1.000000
vt 0.500000 0.500000
vt 0.375000 1.000000
vt 0.375000 0.500000
vt 0.250000 1.000000
vt 0.250000 0.500000
vt 0.750000 1.000000
vt 0.625000 1.000000
vt 0.125000 1.000000
vt 0.125000 0.500000
vt 0.000000 1.000000
vt 0.000000 0.500000
vt 0.500000 0.500000
vt 0.625000 0.500000
vt 0.125000 1.000000
vt 0.250000 1.000000
vt 0.125000 1.000000
vt 0.375000 1.000000
vt 0.500000 1.000000
vt 0.875000 1.000000
vt 0.000000 1.000000
vt 1.000000 1.000000
vt 0.875000 0.500000
vt 1.000000 0.500000
vt 0.375000 1.000000
vt 0.625000 1.000000
vt 0.875000 1.000000
vt 0.000000 1.000000
vt 0.250000 1.000000
vt 0.500000 1.000000
vt 0.750000 1.000000
vt 0.000000 0.500000
vt 0.125000 0.500000
vt 0.375000 0.500000
vt 0.750000 0.500000
vt 0.250000 0.500000
vt 0.000000 0.500000
vt 0.125000 0.500000
vt 0.750000 0.490000
vt 0.919706 0.419706
vt 0.990000 0.250000
vt 0.919706 0.080294
vt 0.750000 0.010000
vt 0.580294 0.080294
vt 0.510000 0.250000
vt 0.580294 0.419706
vt 0.750000 0.500000
vt 0.875000 0.500000
vt 0.500000 0.500000
vt 0.625000 0.500000
vt 0.250000 0.500000
vt 0.375000 0.500000
vt 1.000000 0.500000
vt 0.375000 0.000000
vt 0.625000 0.000000
vt 0.625000 0.250000
vt 0.375000 0.250000
vt 0.625000 0.500000
vt 0.375000 0.500000
vt 0.625000 0.750000
vt 0.375000 0.750000
vt 0.625000 1.000000
vt 0.375000 1.000000
vt 0.125000 0.500000
vt 0.125000 0.750000
vt 0.875000 0.500000
vt 0.875000 0.750000
vt 0.500000 0.000000
vt 0.625000 0.000000
vt 0.625000 0.250000
vt 0.500000 0.250000
vt 0.625000 0.500000
vt 0.500000 0.500000
vt 0.625000 0.750000
vt 0.500000 0.750000
vt 0.625000 1.000000
vt 0.500000 1.000000
vt 0.125000 0.500000
vt 0.375000 0.500000
vt 0.375000 0.750000
vt 0.125000 0.750000
vt 0.875000 0.500000
vt 0.875000 0.750000
vt 0.375000 1.000000
vt 0.375000 0.250000
vt 0.375000 0.000000
vt 0.500000 0.000000
vt 0.625000 0.000000
vt 0.625000 0.250000
vt 0.500000 0.250000
vt 0.625000 0.500000
vt 0.500000 0.500000
vt 0.625000 0.750000
vt 0.500000 0.750000
vt 0.625000 1.000000
vt 0.500000 1.000000
vt 0.125000 0.500000
vt 0.375000 0.500000
vt 0.375000 0.750000
vt 0.125000 0.750000
vt 0.875000 0.500000
vt 0.875000 0.750000
vt 0.375000 1.000000
vt 0.375000 0.250000
vt 0.375000 0.000000
vn 0.0000 0.9884 -0.1521
vn 0.0000 0.9950 0.0995
vn 0.7036 0.7036 0.0995
vn 0.6989 0.6989 -0.1521
vn 0.9950 -0.0000 0.0995
vn 0.9884 -0.0000 -0.1521
vn 0.7036 -0.7036 0.0995
vn 0.6989 -0.6989 -0.1521
vn -0.0000 -0.9950 0.0995
vn -0.0000 -0.9884 -0.1521
vn -0.7036 -0.7036 0.0995
vn -0.6989 -0.6989 -0.1521
vn -0.9950 -0.0000 0.0995
vn -0.9884 -0.0000 -0.1521
vn 0.7963 -0.0000 0.6049
vn 0.5631 -0.5631 0.6049
vn -0.7036 0.7036 0.0995
vn -0.6989 0.6989 -0.1521
vn -0.0000 -0.9864 -0.1641
vn 0.6975 -0.6975 -0.1641
vn -0.5631 0.5631 0.6049
vn -0.7963 -0.0000 0.6049
vn 0.0000 0.0000 1.0000
vn -0.5631 -0.5631 0.6049
vn 0.0000 -0.7963 0.6049
vn 0.5631 0.5631 0.6049
vn 0.0000 0.7963 0.6049
vn 0.6975 0.6975 -0.1641
vn 0.0000 0.9864 -0.1641
vn -0.6975 0.6975 -0.1641
vn -0.6975 -0.6975 -0.1641
vn 0.9864 0.0000 -0.1641
vn -0.9864 0.0000 -0.1641
vn 0.0000 1.0000 -0.0000
vn -0.7071 0.7071 -0.0000
vn 0.0000 0.0000 -1.0000
vn 1.0000 -0.0000 0.0000
vn 0.7071 0.7071 -0.0000
vn -0.0000 -1.0000 0.0000
vn 0.7071 -0.7071 0.0000
vn -1.0000 -0.0000 0.0000
vn -0.7071 -0.7071 0.0000
vn -1.0000 0.0001 0.0033
vn -0.9608 -0.0051 -0.2773
vn -1.0000 -0.0001 -0.0033
vn -0.0422 0.0099 -0.9991
vn 0.2768 -0.0648 -0.9588
vn 0.0422 -0.0099 -0.9991
vn 1.0000 0.0001 -0.0033
vn 0.9608 -0.0051 0.2773
vn 1.0000 -0.0001 0.0033
vn 0.0422 0.0099 0.9991
vn -0.2768 -0.0648 0.9588
vn -0.0422 -0.0099 0.9991
vn 0.2768 0.0648 0.9588
vn 0.9608 0.0051 -0.2773
vn -0.2768 0.0648 -0.9588
vn -0.9608 0.0051 0.2773
vn -0.0001 -1.0000 0.0033
vn 0.0051 -0.9608 -0.2773
vn 0.0001 -1.0000 -0.0033
vn -0.0099 -0.0422 -0.9991
vn 0.0648 0.2768 -0.9587
vn 0.0099 0.0422 -0.9991
vn -0.0001 1.0000 -0.0033
vn 0.0051 0.9608 0.2773
vn 0.0001 1.0000 0.0033
vn -0.0099 0.0422 0.9991
vn 0.0648 -0.2768 0.9587
vn 0.0099 -0.0422 0.9991
vn -0.0648 0.2768 0.9587
vn -0.0051 0.9608 -0.2773
vn -0.0648 -0.2768 -0.9587
vn -0.0051 -0.9608 0.2773
usemtl Material
s 1
f 1/1/1 2/2/2 4/3/3 3/4/4
f 3/4/4 4/3/3 6/5/5 5/6/6
f 5/6/6 6/5/5 8/7/7 7/8/8
f 7/8/8 8/7/7 10/9/9 9/10/10
f 9/10/10 10/9/9 12/11/11 11/12/12
f 11/12/12 12/11/11 14/13/13 13/14/14
f 8/7/7 6/5/5 19/15/15 20/16/16
f 13/14/14 14/13/13 16/17/17 15/18/18
f 15/18/18 16/17/17 2/19/2 1/20/1
f 7/8/8 9/10/10 28/21/19 29/22/20
f 24/23/21 23/24/22 25/25/23
f 14/13/13 12/11/11 22/26/24 23/24/22
f 10/9/9 8/7/7 20/16/16 21/27/25
f 16/17/17 14/13/13 23/24/22 24/23/21
f 6/5/5 4/3/3 18/28/26 19/15/15
f 12/11/11 10/9/9 21/27/25 22/26/24
f 2/19/2 16/17/17 24/23/21 17/29/27
f 4/3/3 2/2/2 17/30/27 18/28/26
f 1/1/1 3/4/4 31/31/28 32/32/29
f 22/26/24 21/27/25 25/33/23
f 20/16/16 19/15/15 25/34/23
f 18/28/26 17/30/27 25/35/23
f 17/29/27 24/23/21 25/36/23
f 23/24/22 22/26/24 25/37/23
f 21/27/25 20/16/16 25/38/23
f 19/15/15 18/28/26 25/39/23
f 15/18/18 1/20/1 32/40/29 33/41/30
f 9/10/10 11/12/12 27/42/31 28/21/19
f 3/4/4 5/6/6 30/43/32 31/31/28
f 13/14/14 15/18/18 33/41/30 26/44/33
f 33/41/30 32/40/29 40/45/34 41/46/35
f 5/6/6 7/8/8 29/22/20 30/43/32
f 11/12/12 13/14/14 26/44/33 27/42/31
f 40/47/36 39/48/36 38/49/36 37/50/36 36/51/36 35/52/36 34/53/36 41/54/36
f 31/31/28 30/43/32 38/55/37 39/56/38
f 29/22/20 28/21/19 36/57/39 37/58/40
f 27/42/31 26/44/33 34/59/41 35/60/42
f 26/44/33 33/41/30 41/46/35 34/59/41
f 32/32/29 31/31/28 39/56/38 40/61/34
f 30/43/32 29/22/20 37/58/40 38/55/37
f 28/21/19 27/42/31 35/60/42 36/57/39
f 42/62/41 43/63/41 45/64/41 44/65/41
f 44/65/36 45/64/36 49/66/36 48/67/36
f 48/67/37 49/66/37 47/68/37 46/69/37
f 46/69/23 47/68/23 43/70/23 42/71/23
f 44/72/39 48/67/39 46/69/39 42/73/39
f 49/66/34 45/74/34 43/75/34 47/68/34
f 58/76/43 51/77/44 53/78/44 59/79/45
f 59/79/46 53/78/47 57/80/47 60/81/48
f 60/81/49 57/80/50 55/82/50 61/83/51
f 61/83/52 55/82/53 51/84/53 58/85/54
f 52/86/39 56/87/39 54/88/39 50/89/39
f 57/80/34 53/90/34 51/91/34 55/82/34
f 54/88/55 61/83/52 58/85/54 50/92/55
f 56/87/56 60/81/49 61/83/51 54/88/56
f 52/93/57 59/79/46 60/81/48 56/87/57
f 50/94/58 58/76/43 59/79/45 52/93/58
f 70/95/59 63/96/60 65/97/60 71/98/61
f 71/98/62 65/97/63 69/99/63 72/100/64
f 72/100/65 69/99/66 67/101/66 73/102/67
f 73/102/68 67/101/69 63/103/69 70/104/70
f 64/105/37 68/106/37 66/107/37 62/108/37
f 69/99/41 65/109/41 63/110/41 67/101/41
f 66/107/71 73/102/68 70/104/70 62/111/71
f 68/106/72 72/100/65 73/102/67 66/107/72
f 64/112/73 71/98/62 72/100/64 68/106/73
f 62/113/74 70/95/59 71/98/61 64/112/74
