# Blender v2.92.0 OBJ File: 'sub_layout.blend'
# www.blender.org
mtllib stairs_collider.mtl
o stairs_collider_Cube.012
v 28.718998 -4.592058 -23.368893
v 29.071257 -4.092058 -22.207655
v 29.190201 -3.592058 -21.000006
v 29.071259 -3.092058 -19.792356
v 28.719002 -2.592058 -18.631117
v 28.146965 -2.092058 -17.560913
v 27.377136 -1.592058 -16.622869
v 26.439095 -1.092058 -15.853038
v 25.368891 -0.592058 -15.281002
v 24.207651 -0.092058 -14.928743
v 23.000002 -0.092058 -14.809799
v 23.000002 -0.092058 -16.958046
v 23.788548 -0.092058 -17.035713
v 24.546791 -0.592058 -17.265724
v 25.245590 -1.092058 -17.639240
v 25.858095 -1.592058 -18.141911
v 26.360764 -2.092058 -18.754414
v 26.734280 -2.592058 -19.453215
v 26.964289 -3.092058 -20.211458
v 27.041954 -3.592058 -21.000004
v 26.964287 -4.092058 -21.788549
v 26.734276 -4.592058 -22.546793
v 28.178673 -5.092058 -24.574137
v 26.193951 -5.092058 -23.752035
vt 0.000000 0.000000
vt 0.000000 0.000000
vt 0.000000 0.000000
vt 0.000000 0.000000
vt 0.000000 0.000000
vt 0.000000 0.000000
vt 0.000000 0.000000
vt 0.000000 0.000000
vt 0.000000 0.000000
vt 0.000000 0.000000
vt 0.000000 0.000000
vt 0.000000 0.000000
vt 0.000000 0.000000
vt 0.000000 0.000000
vt 0.000000 0.000000
vt 0.000000 0.000000
vt 0.000000 0.000000
vt 0.000000 0.000000
vt 0.000000 0.000000
vt 0.000000 0.000000
vt 0.000000 0.000000
vt 0.000000 0.000000
vt 0.000000 0.000000
vt 0.000000 0.000000
vn 0.1295 0.8949 -0.4270
vn 0.0437 0.8949 -0.4440
vn 0.0000 1.0000 0.0000
vn -0.0437 0.8949 -0.4440
vn 0.4270 0.8949 -0.1295
vn -0.1295 0.8949 -0.4270
vn 0.3935 0.8949 -0.2103
vn 0.3449 0.8949 -0.2830
vn 0.2830 0.8949 -0.3449
vn 0.2103 0.8949 -0.3935
vn -0.1355 0.9352 -0.3272
usemtl None
s off
f 19/1/1 18/2/1 5/3/1 4/4/1
f 20/5/2 19/1/2 4/4/2 3/6/2
f 13/7/3 12/8/3 11/9/3 10/10/3
f 21/11/4 20/5/4 3/6/4 2/12/4
f 14/13/5 13/7/5 10/10/5 9/14/5
f 22/15/6 21/11/6 2/12/6 1/16/6
f 15/17/7 14/13/7 9/14/7 8/18/7
f 16/19/8 15/17/8 8/18/8 7/20/8
f 17/21/9 16/19/9 7/20/9 6/22/9
f 18/2/10 17/21/10 6/22/10 5/3/10
f 22/15/11 1/16/11 23/23/11 24/24/11
