# Blender v2.92.0 OBJ File: ''
# www.blender.org
mtllib sub_exit.mtl
o Cylinder
v 0.000000 0.000000 -1.000000
v -0.500000 0.000000 -0.866025
v -0.866025 0.000000 -0.500000
v -1.000000 0.000000 0.000000
v -0.866025 0.000000 0.500000
v -0.500000 0.000000 0.866025
v 0.000000 3.000000 -1.000000
v 0.500000 0.000000 0.866026
v 0.866025 0.000000 0.500000
v 1.000000 0.000000 0.000000
v 0.866026 0.000000 -0.499999
v 0.500001 0.000000 -0.866025
v -0.500000 3.000000 -0.866025
v -0.866025 3.000000 -0.500000
v -1.000000 3.000000 0.000000
v -0.866025 3.000000 0.500000
v -0.500000 3.000000 0.866025
v 0.500000 3.000000 0.866026
v 0.866025 3.000000 0.500000
v 1.000000 3.000000 0.000000
v 0.866026 3.000000 -0.499999
v 0.500001 3.000000 -0.866025
v -0.000000 0.000000 -1.051796
v -0.528488 0.000000 -0.910188
v -0.915368 0.000000 -0.523308
v -1.056976 0.000000 0.005180
v -0.915368 0.000000 0.533668
v -0.528488 0.000000 0.920547
v 0.528488 0.000000 0.920548
v 0.915368 0.000000 0.533668
v 1.056976 0.000000 0.005180
v 0.915368 0.000000 -0.523308
v 0.528489 0.000000 -0.910188
v -0.000000 3.000000 -1.051796
v -0.528488 3.000000 -0.910188
v -0.915368 3.000000 -0.523308
v -1.056976 3.000000 0.005180
v -0.915368 3.000000 0.533668
v -0.528488 3.000000 0.920547
v 0.528488 3.000000 0.920548
v 0.915368 3.000000 0.533668
v 1.056976 3.000000 0.005180
v 0.915368 3.000000 -0.523308
v 0.528489 3.000000 -0.910188
v -0.000000 3.000000 -0.866429
v -0.509274 3.000000 -0.700956
v -0.824023 3.000000 -0.267741
v -0.824023 3.000000 0.267741
v -0.509274 3.000000 0.700956
v 0.000000 3.000000 0.866429
v 0.509274 3.000000 0.700956
v 0.824023 3.000000 0.267741
v 0.824023 3.000000 -0.267741
v 0.509274 3.000000 -0.700956
v -0.000000 2.900000 -0.866429
v -0.509274 2.900000 -0.700956
v -0.824023 2.900000 -0.267741
v -0.824023 2.900000 0.267741
v -0.509274 2.900000 0.700956
v 0.000000 2.900000 0.866429
v 0.509274 2.900000 0.700956
v 0.824023 2.900000 0.267741
v 0.824023 2.900000 -0.267741
v 0.509274 2.900000 -0.700956
v -0.000000 2.900000 -0.664337
v -0.390487 2.900000 -0.537460
v -0.631822 2.900000 -0.205291
v -0.631822 2.900000 0.205291
v -0.390487 2.900000 0.537460
v 0.000000 2.900000 0.664337
v 0.390487 2.900000 0.537460
v 0.631822 2.900000 0.205291
v 0.631822 2.900000 -0.205291
v 0.390487 2.900000 -0.537460
v -0.000000 2.777219 -0.362324
v -0.212969 2.777219 -0.293126
v -0.344591 2.777219 -0.111964
v -0.344591 2.777219 0.111964
v -0.212969 2.777219 0.293126
v 0.000000 2.777219 0.362324
v 0.212969 2.777219 0.293126
v 0.344591 2.777219 0.111964
v 0.344591 2.777219 -0.111964
v 0.212969 2.777219 -0.293126
v -0.000000 2.739021 -0.000000
v 0.112526 2.627154 -0.529396
v 0.402207 2.627154 -0.362149
v 0.538258 2.627154 -0.056573
v 0.468713 2.627154 0.270611
v 0.220135 2.627154 0.494432
v -0.112526 2.627154 0.529396
v -0.402207 2.627154 0.362149
v -0.538258 2.627154 0.056573
v -0.468713 2.627154 -0.270611
v -0.220135 2.627154 -0.494432
v 0.112526 2.677681 -0.529396
v 0.402207 2.677681 -0.362149
v 0.538258 2.677681 -0.056573
v 0.468713 2.677681 0.270611
v 0.220135 2.677681 0.494432
v -0.112526 2.677681 0.529396
v -0.402207 2.677681 0.362149
v -0.538258 2.677681 0.056573
v -0.468713 2.677681 -0.270611
v -0.220135 2.677681 -0.494432
v 0.094799 2.627154 -0.445995
v 0.338843 2.627154 -0.305096
v 0.453461 2.627154 -0.047661
v 0.394872 2.627154 0.227979
v 0.185455 2.627154 0.416539
v -0.094799 2.627154 0.445995
v -0.338843 2.627154 0.305096
v -0.453461 2.627154 0.047661
v -0.394872 2.627154 -0.227979
v -0.185455 2.627154 -0.416539
v 0.094799 2.677681 -0.445995
v 0.338843 2.677681 -0.305096
v 0.453461 2.677681 -0.047661
v 0.394872 2.677681 0.227979
v 0.185455 2.677681 0.416539
v -0.094799 2.677681 0.445995
v -0.338843 2.677681 0.305096
v -0.453461 2.677681 0.047661
v -0.394872 2.677681 -0.227979
v -0.185455 2.677681 -0.416539
v 0.394197 2.634385 0.246299
v 0.394197 2.666790 0.246299
v -0.410400 2.634385 -0.218235
v -0.410400 2.666790 -0.218235
v 0.410400 2.634385 0.218235
v 0.410400 2.666790 0.218235
v -0.394197 2.634385 -0.246299
v -0.394197 2.666790 -0.246299
v 0.246299 2.634385 -0.394197
v 0.246299 2.666790 -0.394197
v -0.218235 2.634385 0.410400
v -0.218235 2.666790 0.410400
v 0.218235 2.634385 -0.410400
v 0.218235 2.666790 -0.410400
v -0.246299 2.634385 0.394197
v -0.246299 2.666790 0.394197
v -0.074889 2.595503 0.074889
v -0.074889 2.866291 0.074889
v -0.074889 2.595503 -0.074889
v -0.074889 2.866291 -0.074889
v 0.074889 2.595503 0.074889
v 0.074889 2.866291 0.074889
v 0.074889 2.595503 -0.074889
v 0.074889 2.866291 -0.074889
v -0.000000 3.000000 -1.370171
v -0.703594 3.000000 -1.181643
v -1.218660 3.000000 -0.666577
v -1.407188 3.000000 0.037017
v -1.218660 3.000000 0.740611
v -0.703594 3.000000 1.255677
v 0.703594 3.000000 1.255677
v 1.218660 3.000000 0.740611
v 1.407187 3.000000 0.037018
v 1.218661 3.000000 -0.666576
v 0.703595 3.000000 -1.181643
v 0.000000 5.170208 -1.370171
v -0.703594 5.170208 -1.181643
v -1.218660 5.170208 -0.666577
v -1.407188 5.170208 0.037017
v -1.218660 5.170208 0.740611
v -0.703594 5.170208 1.255677
v 0.703594 5.170208 1.255677
v 1.218660 5.170208 0.740611
v 1.407187 5.170208 0.037018
v 1.218661 5.170208 -0.666576
v 0.703595 5.170208 -1.181643
v -0.500000 0.000000 -0.832604
v 0.500001 0.000000 -0.832603
v -0.500000 3.000000 -0.832604
v 0.500001 3.000000 -0.832603
v -0.500000 0.000000 -0.632604
v 0.500001 0.000000 -0.632603
v -0.500000 3.000000 -0.632604
v 0.500001 3.000000 -0.632603
v 0.400001 0.000000 -0.832603
v 0.400001 3.000000 -0.832603
v 0.400001 0.000000 -0.632603
v 0.400001 3.000000 -0.632603
v -0.400000 0.000000 -0.832604
v -0.400000 3.000000 -0.832604
v -0.400000 0.000000 -0.632604
v -0.400000 3.000000 -0.632604
v 0.400001 0.300000 -0.832603
v 0.400001 0.200000 -0.632603
v -0.400000 0.300000 -0.832604
v -0.400000 0.200000 -0.632604
v 0.400001 0.600000 -0.832603
v 0.400001 0.500000 -0.632603
v -0.400000 0.600000 -0.832604
v -0.400000 0.500000 -0.632604
v 0.400001 0.900000 -0.832603
v 0.400001 0.800000 -0.632603
v -0.400000 0.900000 -0.832604
v -0.400000 0.800000 -0.632604
v 0.400001 1.200000 -0.832603
v 0.400001 1.100000 -0.632603
v -0.400000 1.200000 -0.832604
v -0.400000 1.100000 -0.632604
v 0.400001 1.500000 -0.832603
v 0.400001 1.400000 -0.632603
v -0.400000 1.500000 -0.832604
v -0.400000 1.400000 -0.632604
v 0.400001 1.800000 -0.832603
v 0.400001 1.700000 -0.632603
v -0.400000 1.800000 -0.832604
v -0.400000 1.700000 -0.632604
v 0.400001 2.100000 -0.832603
v 0.400001 2.000000 -0.632603
v -0.400000 2.100000 -0.832604
v -0.400000 2.000000 -0.632604
v 0.400001 2.400000 -0.832603
v 0.400001 2.300000 -0.632603
v -0.400000 2.400000 -0.832604
v -0.400000 2.300000 -0.632604
v 0.400001 2.700000 -0.832603
v 0.400001 2.600000 -0.632603
v -0.400000 2.700000 -0.832604
v -0.400000 2.600000 -0.632604
vt 1.070731 0.179841
vt 1.212060 0.179841
vt 1.212060 0.999150
vt 1.070731 0.999150
vt 0.007928 0.179841
vt 0.130357 0.179841
vt 0.130357 0.999150
vt 0.007928 0.999150
vt 0.950016 0.179841
vt 0.950016 0.999150
vt 1.609236 0.179841
vt 1.709199 0.179841
vt 1.709199 0.999150
vt 1.609236 0.999150
vt 1.336133 0.179841
vt 1.472685 0.179841
vt 1.472685 0.999150
vt 1.336133 0.999150
vt 0.271726 0.179841
vt 0.394154 0.179841
vt 0.394154 0.999150
vt 0.271725 0.999150
vt -0.302235 0.129146
vt -0.174620 0.129146
vt -0.174620 0.948455
vt -0.302235 0.948455
vt -0.709199 0.129146
vt -0.574314 0.129146
vt -0.574314 0.948455
vt -0.709199 0.948455
vt 0.416160 -0.639468
vt 0.547302 -0.639468
vt 0.547302 0.179841
vt 0.416160 0.179841
vt 0.137332 -0.639468
vt 0.286755 -0.639468
vt 0.286755 0.179841
vt 0.137332 0.179841
vt -0.425354 0.129146
vt -0.425354 0.948455
vt 0.696683 -0.639468
vt 0.696683 0.179841
vt 0.416160 -0.639468
vt 0.416160 0.179841
vt -0.302235 0.129146
vt -0.302235 0.948455
vt 0.824276 -0.639468
vt 0.824276 0.179841
vt -0.174620 0.129146
vt -0.068962 0.129146
vt -0.068962 0.948455
vt -0.174620 0.948455
vt 0.007928 -0.639468
vt 0.007928 0.179841
vt 0.007928 -0.447315
vt -0.132738 0.077659
vt -0.657711 -0.447315
vt -0.324892 -0.639468
vt -0.517045 0.077659
vt -0.657711 -0.063008
vt -0.324892 0.129146
vt 0.007928 -0.063008
vt -0.132738 -0.587981
vt -0.052483 0.948455
vt -0.052483 0.129146
vt 0.406523 0.179841
vt 0.406523 0.999150
vt 0.287124 1.327364
vt 0.180481 1.362015
vt 0.180481 1.279534
vt 0.238643 1.260636
vt 0.007928 1.236648
vt 0.007928 1.124517
vt 0.086372 1.150005
vt 0.086372 1.211160
vt 0.180480 0.999150
vt 0.287124 1.033801
vt 0.238643 1.100529
vt 0.180481 1.081631
vt 0.353033 1.236648
vt 0.274589 1.211160
vt 0.073837 1.327365
vt 0.122318 1.260636
vt 0.073837 1.033801
vt 0.122318 1.100529
vt 0.353033 1.124517
vt 0.274589 1.150005
vt 0.180481 1.180583
vt -0.568533 0.948455
vt -0.568533 1.541146
vt -0.709199 1.541146
vt -0.709199 0.948455
vt 0.578803 0.179841
vt 0.578803 0.772531
vt 0.406523 0.772531
vt 0.406523 0.179841
vt 1.003854 -0.639468
vt 1.003854 -0.046778
vt 0.824276 -0.046778
vt 0.824276 -0.639468
vt 0.581117 0.772531
vt 0.581117 1.365222
vt 0.406523 1.365222
vt 0.406523 0.772531
vt 0.777736 0.179841
vt 0.777735 0.772531
vt 1.202168 -0.639468
vt 1.202168 -0.046778
vt 0.779993 0.772531
vt 0.779993 1.365222
vt 0.950016 0.179841
vt 0.950016 0.772531
vt -0.184226 0.948455
vt -0.184226 1.541146
vt 1.366081 -0.639468
vt 1.366081 -0.046778
vt 0.949862 0.772531
vt 0.949862 1.365222
vt -0.517045 -0.587981
vt -0.709199 -0.255161
vt 0.971646 0.939829
vt 0.971646 -0.302564
vt 1.054331 -0.302564
vt 1.054331 0.939829
vt 0.971646 0.939830
vt 0.888962 0.939830
vt 0.888962 -0.302564
vt 0.971646 -0.302564
vt -0.261151 0.823174
vt -0.261151 0.994646
vt -0.302564 0.994646
vt -0.302564 0.823174
vt -0.219738 0.415066
vt -0.219738 0.601794
vt -0.261151 0.601794
vt -0.261151 0.415066
vt -0.178324 0.836613
vt -0.178324 0.623410
vt -0.136912 0.623410
vt -0.136912 0.836613
vt -0.261151 0.601794
vt -0.302564 0.601794
vt -0.219738 0.623410
vt -0.178324 0.415066
vt -0.178324 0.623410
vt -0.219738 0.823174
vt -0.219738 0.994646
vt -0.261151 0.994646
vt -0.261151 0.823174
vt -0.261151 0.415066
vt -0.302564 0.415066
vt -0.219738 0.836614
vt -0.178324 0.836614
vt -0.178324 0.415066
vt -0.136912 0.415066
vt 0.249596 0.346539
vt 0.038690 0.415066
vt 0.038690 0.331374
vt 0.200403 0.278830
vt -0.302564 0.167131
vt -0.302564 -0.054629
vt -0.222967 -0.028766
vt -0.222967 0.141269
vt 0.038690 -0.302564
vt 0.249596 -0.234036
vt 0.200403 -0.166327
vt 0.038690 -0.218871
vt 0.379943 0.167131
vt 0.300347 0.141269
vt -0.172216 0.346539
vt -0.123023 0.278830
vt -0.172216 -0.234036
vt -0.123023 -0.166327
vt 0.379943 -0.054629
vt 0.300347 -0.028766
vt -0.115986 0.532500
vt -0.136911 0.532500
vt -0.136911 0.415066
vt -0.115986 0.415066
vt -0.032287 0.548646
vt -0.053212 0.548646
vt -0.053212 0.415066
vt -0.032287 0.415066
vt -0.095061 0.670693
vt -0.115986 0.670693
vt -0.115986 0.532500
vt -0.095061 0.532500
vt -0.011362 0.678275
vt -0.032287 0.678275
vt -0.032287 0.548646
vt -0.011362 0.548646
vt -0.115986 0.776859
vt -0.136911 0.776859
vt -0.136911 0.670693
vt -0.115986 0.670693
vt -0.115986 0.415066
vt -0.095061 0.415066
vt -0.032287 0.415066
vt -0.011362 0.415066
vt -0.032287 0.678275
vt -0.053212 0.678275
vt -0.095061 0.776859
vt -0.115986 0.776859
vt -0.074137 0.620929
vt -0.074137 0.719862
vt -0.095062 0.719862
vt -0.095062 0.620929
vt 0.009562 0.524273
vt 0.009562 0.636809
vt -0.011362 0.636809
vt -0.011362 0.524273
vt -0.053212 0.504507
vt -0.053212 0.620929
vt -0.074137 0.620929
vt -0.074137 0.504507
vt 0.030487 0.415066
vt 0.030487 0.524273
vt 0.009562 0.524273
vt 0.009562 0.415066
vt -0.074137 0.415066
vt -0.074137 0.504507
vt -0.095062 0.504507
vt -0.095062 0.415066
vt -0.053212 0.719862
vt -0.074137 0.719862
vt 0.030487 0.636809
vt 0.009562 0.636809
vt 0.009562 0.415066
vt -0.011362 0.415066
vt -0.053212 0.415066
vt -0.074137 0.415066
vt 0.724855 0.551179
vt 0.593110 0.593985
vt 0.593110 0.558674
vt 0.704100 0.522612
vt 0.461366 0.102904
vt 0.379943 -0.009164
vt 0.413526 -0.020076
vt 0.482121 0.074337
vt 0.461366 0.551179
vt 0.482121 0.522612
vt 0.379943 -0.147689
vt 0.413526 -0.136777
vt 0.379943 0.300586
vt 0.461366 0.188517
vt 0.482121 0.217084
vt 0.413526 0.311497
vt 0.379943 0.439110
vt 0.413526 0.428198
vt 0.593110 0.145711
vt 0.593110 0.181021
vt 0.461366 -0.259757
vt 0.482121 -0.231190
vt 0.724855 0.188517
vt 0.704100 0.217084
vt 0.593110 -0.302564
vt 0.593110 -0.267253
vt 0.806278 -0.147689
vt 0.806278 -0.009164
vt 0.772695 -0.020076
vt 0.772695 -0.136777
vt 0.806277 0.300586
vt 0.772695 0.311497
vt 0.724855 -0.259757
vt 0.704100 -0.231190
vt 0.724855 0.102904
vt 0.704100 0.074337
vt 0.806277 0.439110
vt 0.772695 0.428198
vt 0.593110 0.145711
vt 0.593110 0.110400
vt 0.299359 -0.302564
vt 0.700641 -0.302564
vt 0.700641 0.098718
vt 0.299359 0.098718
vt 0.700641 0.500000
vt 0.299359 0.500000
vt 0.700641 0.901282
vt 0.299359 0.901282
vt 0.700641 1.302564
vt 0.299359 1.302564
vt -0.101923 0.500000
vt -0.101923 0.901282
vt 1.101923 0.500000
vt 1.101923 0.901282
vt 0.299359 -0.302564
vt 0.700641 -0.302564
vt 0.700641 0.098718
vt 0.299359 0.098718
vt 0.700641 0.500000
vt 0.299359 0.500000
vt 0.700641 0.901282
vt 0.299359 0.901282
vt 0.700641 1.302564
vt 0.299359 1.302564
vt -0.101923 0.500000
vt -0.101923 0.901282
vt 1.101923 0.500000
vt 1.101923 0.901282
vt 0.299359 -0.302564
vt 0.700641 -0.302564
vt 0.700641 0.098718
vt 0.299359 0.098718
vt 0.700641 0.500000
vt 0.299359 0.500000
vt 0.700641 0.901282
vt 0.299359 0.901282
vt 0.700641 1.302564
vt 0.299359 1.302564
vt -0.101923 0.500000
vt -0.101923 0.901282
vt 1.054331 0.939829
vt 1.054331 -0.302564
vt 1.137015 -0.302564
vt 1.137015 0.939829
vt 1.178402 0.939829
vt 1.178402 -0.302564
vt 1.219789 -0.302564
vt 1.219789 0.939829
vt 1.178402 -0.302564
vt 1.178402 0.939829
vt 0.888962 0.939830
vt 0.806278 0.939830
vt 0.806278 -0.302564
vt 0.888962 -0.302564
vt 1.219789 -0.302564
vt 1.261176 -0.302564
vt 1.261176 0.939829
vt 1.219789 0.939829
vt 1.302563 0.939829
vt 1.261176 0.939829
vt 1.261176 -0.302564
vt 1.302564 -0.302564
vt -0.299286 0.500000
vt -0.299286 1.628303
vt -0.614656 1.628303
vt -0.614656 0.500000
vt 1.277565 0.500000
vt 1.277565 -0.628303
vt 1.592936 -0.628303
vt 1.592936 0.500000
vt 0.646825 0.500000
vt 0.646825 -0.628303
vt 0.962196 -0.628303
vt 0.962196 0.500000
vt -0.299285 0.500000
vt -0.299285 -0.628303
vt 0.016085 -0.628303
vt 0.016085 0.500000
vt 1.277565 -0.628303
vt 1.277565 0.500000
vt 0.962195 0.500000
vt 0.962195 -0.628303
vt 0.646825 -0.628303
vt 0.646825 0.500000
vt 0.331455 0.500000
vt 0.331455 -0.628303
vt -0.614656 0.500000
vt -0.614656 -0.628303
vt -0.299286 -0.628303
vt -0.299285 0.500000
vt 0.016085 0.500000
vt 0.016085 -0.628303
vt 0.331455 -0.628303
vt 0.331455 0.500000
vt 0.016085 0.500000
vt 0.016085 1.628303
vt -0.299285 1.628303
vt -0.299285 0.500000
vn 1.0000 0.0000 -0.0000
vn 0.8660 0.0000 0.5000
vn -0.8660 0.0000 0.5000
vn -1.0000 0.0000 -0.0000
vn 0.8660 0.0000 -0.5000
vn -0.5000 0.0000 0.8660
vn 0.5000 0.0000 0.8660
vn -0.0000 0.0000 1.0000
vn -0.8660 0.0000 -0.5000
vn -0.9885 0.0000 -0.1514
vn 0.9885 0.0000 -0.1514
vn 0.5000 0.0000 -0.8660
vn 0.7071 0.0000 0.7071
vn 0.0000 0.0000 -1.0000
vn -0.5000 0.0000 -0.8660
vn -0.7071 0.0000 0.7071
vn 0.0000 -1.0000 0.0000
vn 0.8863 0.0000 0.4631
vn -0.8863 0.0000 0.4631
vn -0.2214 -0.9264 -0.3047
vn -0.0000 -0.9264 -0.3766
vn -0.0000 -0.9631 -0.2691
vn -0.1582 -0.9631 -0.2177
vn 0.3582 -0.9264 -0.1164
vn 0.3582 -0.9264 0.1164
vn 0.2559 -0.9631 0.0832
vn 0.2559 -0.9631 -0.0832
vn 0.0000 -0.9264 0.3766
vn -0.2214 -0.9264 0.3047
vn -0.1582 -0.9631 0.2177
vn 0.0000 -0.9631 0.2691
vn -0.3582 -0.9264 -0.1164
vn -0.2559 -0.9631 -0.0832
vn 0.2214 -0.9264 -0.3047
vn 0.1582 -0.9631 -0.2177
vn 0.2214 -0.9264 0.3047
vn 0.1582 -0.9631 0.2177
vn -0.3582 -0.9264 0.1164
vn -0.2559 -0.9631 0.0832
vn -0.3827 0.0000 0.9239
vn 0.3827 0.0000 0.9239
vn 0.9511 0.0000 0.3090
vn 0.5878 0.0000 0.8090
vn -0.5878 0.0000 0.8090
vn -0.9511 0.0000 0.3090
vn -0.5878 0.0000 -0.8090
vn 0.9511 0.0000 -0.3090
vn -0.9511 0.0000 -0.3090
vn 0.5878 0.0000 -0.8090
vn 0.2079 0.0000 -0.9781
vn 0.7431 0.0000 -0.6691
vn -0.9945 0.0000 0.1045
vn 0.4067 0.0000 0.9135
vn -0.2079 0.0000 0.9781
vn 0.9945 0.0000 -0.1045
vn -0.4067 0.0000 -0.9135
vn -0.7431 0.0000 0.6691
vn 0.0000 1.0000 0.0000
vn -0.0000 0.8944 0.4472
g Cylinder_Cylinder
usemtl (null)
s 1
f 4/1/1 3/2/2 14/3/2 15/4/1
f 11/5/3 10/6/4 20/7/4 21/8/3
f 5/9/5 4/1/1 15/4/1 16/10/5
f 12/11/6 11/12/3 21/13/3 22/14/6
f 2/15/7 1/16/8 7/17/8 13/18/7
f 9/19/9 8/20/10 18/21/10 19/22/9
f 6/23/11 5/24/5 16/25/5 17/26/11
f 1/16/8 12/11/6 22/14/6 7/17/8
f 3/2/2 2/15/7 13/18/7 14/3/2
f 10/6/4 9/19/9 19/22/9 20/7/4
f 32/27/5 33/28/12 44/29/12 43/30/5
f 29/31/13 30/32/2 41/33/2 40/34/13
f 25/35/9 26/36/4 37/37/4 36/38/9
f 33/28/12 23/39/14 34/40/14 44/29/12
f 30/32/2 31/41/1 42/42/1 41/33/2
f 26/36/4 27/43/3 38/44/3 37/37/4
f 23/39/14 24/45/15 35/46/15 34/40/14
f 31/41/1 32/47/5 43/48/5 42/42/1
f 27/49/3 28/50/16 39/51/16 38/52/3
f 24/53/15 25/35/9 36/38/9 35/54/15
f 156/55/17 154/56/17 160/57/17
f 160/57/17 158/58/17 156/55/17
f 152/59/17 151/60/17 160/57/17
f 154/56/17 153/61/17 152/59/17
f 156/55/17 155/62/17 154/56/17
f 158/58/17 157/63/17 156/55/17
f 17/64/11 39/51/18 28/50/18 6/65/11
f 8/20/10 29/66/19 40/67/19 18/21/10
f 66/68/20 65/69/21 75/70/22 76/71/23
f 73/72/24 72/73/25 82/74/26 83/75/27
f 70/76/28 69/77/29 79/78/30 80/79/31
f 67/80/32 66/68/20 76/71/23 77/81/33
f 74/82/34 73/72/24 83/75/27 84/83/35
f 71/84/36 70/76/28 80/79/31 81/85/37
f 68/86/38 67/80/32 77/81/33 78/87/39
f 65/69/21 74/82/34 84/83/35 75/70/22
f 72/73/25 71/84/36 81/85/37 82/74/26
f 69/77/29 68/86/38 78/87/39 79/78/30
f 83/75/27 82/74/26 85/88/17
f 80/79/31 79/78/30 85/88/17
f 77/81/33 76/71/23 85/88/17
f 84/83/35 83/75/27 85/88/17
f 81/85/37 80/79/31 85/88/17
f 78/87/39 77/81/33 85/88/17
f 75/70/22 84/83/35 85/88/17
f 82/74/26 81/85/37 85/88/17
f 79/78/30 78/87/39 85/88/17
f 76/71/23 75/70/22 85/88/17
f 154/56/17 152/59/17 160/57/17
f 155/89/40 166/90/40 165/91/3 154/92/3
f 152/93/9 163/94/9 162/95/15 151/96/15
f 160/97/12 171/98/12 170/99/5 159/100/5
f 157/101/2 168/102/2 167/103/41 156/104/41
f 153/105/4 164/106/4 163/94/9 152/93/9
f 150/107/14 161/108/14 171/98/12 160/97/12
f 158/109/1 169/110/1 168/102/2 157/101/2
f 154/111/3 165/112/3 164/106/4 153/105/4
f 156/113/41 167/114/41 166/90/40 155/89/40
f 151/115/15 162/116/15 161/108/14 150/107/14
f 159/117/5 170/118/5 169/110/1 158/109/1
f 160/57/17 159/119/17 158/58/17
f 151/60/17 150/120/17 160/57/17
f 174/121/4 172/122/4 176/123/4 178/124/4
f 175/125/1 179/126/1 177/127/1 173/128/1
f 52/129/42 51/130/43 61/131/43 62/132/42
f 49/133/44 48/134/45 58/135/45 59/136/44
f 46/137/46 45/138/14 55/139/14 56/140/46
f 53/141/47 52/129/42 62/132/42 63/142/47
f 50/143/8 49/133/44 59/144/44 60/145/8
f 47/146/48 46/147/46 56/148/46 57/149/48
f 54/150/49 53/141/47 63/142/47 64/151/49
f 51/152/43 50/143/8 60/145/8 61/153/43
f 48/134/45 47/146/48 57/149/48 58/135/45
f 45/138/14 54/154/49 64/155/49 55/139/14
f 59/156/17 58/157/17 68/158/17 69/159/17
f 56/160/17 55/161/17 65/162/17 66/163/17
f 63/164/17 62/165/17 72/166/17 73/167/17
f 60/168/17 59/156/17 69/159/17 70/169/17
f 57/170/17 56/160/17 66/163/17 67/171/17
f 64/172/17 63/164/17 73/167/17 74/173/17
f 61/174/17 60/168/17 70/169/17 71/175/17
f 58/157/17 57/170/17 67/171/17 68/158/17
f 55/161/17 64/172/17 74/173/17 65/162/17
f 62/165/17 61/174/17 71/175/17 72/166/17
f 86/176/50 96/177/50 97/178/51 87/179/51
f 93/180/52 103/181/52 104/182/9 94/183/9
f 90/184/53 100/185/53 101/186/54 91/187/54
f 87/188/51 97/189/51 98/190/55 88/191/55
f 94/192/9 104/193/9 105/194/56 95/195/56
f 91/187/54 101/186/54 102/196/57 92/197/57
f 88/191/55 98/190/55 99/198/2 89/199/2
f 95/195/56 105/194/56 96/177/50 86/176/50
f 92/200/57 102/201/57 103/181/52 93/180/52
f 89/202/2 99/203/2 100/185/53 90/184/53
f 106/204/54 107/205/57 117/206/57 116/207/54
f 113/208/55 114/209/2 124/210/2 123/211/55
f 110/212/56 111/213/50 121/214/50 120/215/56
f 107/216/57 108/217/52 118/218/52 117/219/57
f 114/220/2 115/221/53 125/222/53 124/223/2
f 111/213/50 112/224/51 122/225/51 121/214/50
f 108/217/52 109/226/9 119/227/9 118/218/52
f 115/221/53 106/204/54 116/207/54 125/222/53
f 112/228/51 113/208/55 123/211/55 122/229/51
f 109/230/9 110/212/56 120/215/56 119/231/9
f 98/232/58 97/233/58 117/234/58 118/235/58
f 88/236/17 89/237/17 109/238/17 108/239/17
f 97/233/58 96/240/58 116/241/58 117/234/58
f 89/237/17 90/242/17 110/243/17 109/238/17
f 104/244/58 103/245/58 123/246/58 124/247/58
f 96/240/58 105/248/58 125/249/58 116/241/58
f 103/245/58 102/250/58 122/251/58 123/246/58
f 90/242/17 91/252/17 111/253/17 110/243/17
f 105/248/58 104/244/58 124/247/58 125/249/58
f 102/250/58 101/254/58 121/255/58 122/251/58
f 91/252/17 92/256/17 112/257/17 111/253/17
f 94/258/17 95/259/17 115/260/17 114/261/17
f 101/254/58 100/262/58 120/263/58 121/255/58
f 92/256/17 93/264/17 113/265/17 112/257/17
f 95/259/17 86/266/17 106/267/17 115/260/17
f 100/262/58 99/268/58 119/269/58 120/263/58
f 93/264/17 94/258/17 114/261/17 113/265/17
f 86/266/17 87/270/17 107/271/17 106/267/17
f 99/268/58 98/232/58 118/235/58 119/269/58
f 87/270/17 88/236/17 108/239/17 107/271/17
f 126/272/6 127/273/6 129/274/6 128/275/6
f 128/275/9 129/274/9 133/276/9 132/277/9
f 132/277/12 133/276/12 131/278/12 130/279/12
f 130/279/2 131/278/2 127/280/2 126/281/2
f 128/282/17 132/277/17 130/279/17 126/283/17
f 133/276/58 129/284/58 127/285/58 131/278/58
f 134/286/2 135/287/2 137/288/2 136/289/2
f 136/289/6 137/288/6 141/290/6 140/291/6
f 140/291/9 141/290/9 139/292/9 138/293/9
f 138/293/12 139/292/12 135/294/12 134/295/12
f 136/296/17 140/291/17 138/293/17 134/297/17
f 141/290/58 137/298/58 135/299/58 139/292/58
f 142/300/4 143/301/4 145/302/4 144/303/4
f 144/303/14 145/302/14 149/304/14 148/305/14
f 148/305/1 149/304/1 147/306/1 146/307/1
f 146/307/8 147/306/8 143/308/8 142/309/8
f 144/310/17 148/305/17 146/307/17 142/311/17
f 181/312/4 180/313/4 182/314/4 183/315/4
f 175/316/14 173/317/14 180/318/14 181/319/14
f 177/320/8 179/321/8 183/315/8 182/314/8
f 185/322/1 187/323/1 186/324/1 184/325/1
f 176/326/8 186/327/8 187/328/8 178/329/8
f 174/330/14 185/331/14 184/332/14 172/333/14
f 188/334/59 190/335/59 191/336/59 189/337/59
f 192/338/59 194/339/59 195/340/59 193/341/59
f 196/342/59 198/343/59 199/344/59 197/345/59
f 200/346/59 202/347/59 203/348/59 201/349/59
f 204/350/59 206/351/59 207/352/59 205/353/59
f 208/354/59 210/355/59 211/356/59 209/357/59
f 212/358/59 214/359/59 215/360/59 213/361/59
f 216/362/59 218/363/59 219/364/59 217/365/59
f 220/366/59 222/367/59 223/368/59 221/369/59
